<?xml version="1.0" encoding="UTF-8"?>
<svg xmlns="http://www.w3.org/2000/svg" version="1.1" viewBox="0 0 36 36">
  <defs>
    <style>
      .cls-1 {
        fill: #e9b820;
      }

      .cls-2 {
        fill: none;
        stroke: #e9b820;
        stroke-miterlimit: 10;
        stroke-width: 3px;
      }

      .cls-3 {
        fill: #483a7c;
      }
    </style>
  </defs>
  <!-- Generator: Adobe Illustrator 28.6.0, SVG Export Plug-In . SVG Version: 1.2.0 Build 709)  -->
  <g>
    <g id="Back_Arrow">
      <path id="Background" class="cls-3" d="M18,35.5C8.4,35.5.5,27.6.5,18S8.4.5,18,.5s17.5,7.9,17.5,17.5-7.9,17.5-17.5,17.5Z"/>
      <path id="Arrow" class="cls-2" d="M21.3,11.5s-5.4,5.4-6.5,6.5c1.1,1.1,6.5,6.5,6.5,6.5"/>
      <path id="Ring" class="cls-1" d="M18,2.5c8.5,0,15.5,6.9,15.5,15.5s-7,15.5-15.5,15.5S2.5,26.5,2.5,18,9.4,2.5,18,2.5M18,2C9.2,2,2,9.2,2,18s7.2,16,16,16,16-7.2,16-16S26.8,2,18,2h0Z"/>
    </g>
  </g>
</svg>